<mxfile host="Electron" modified="2023-11-22T18:01:52.710Z" agent="Mozilla/5.0 (Windows NT 10.0; Win64; x64) AppleWebKit/537.36 (KHTML, like Gecko) draw.io/22.1.2 Chrome/114.0.5735.289 Electron/25.9.4 Safari/537.36" etag="-NnL45TnysaQPnigoH0r" version="22.1.2" type="device">
  <diagram name="Página-1" id="_K2IQpbKy-T_P4phEsVc">
    <mxGraphModel dx="3220" dy="1113" grid="1" gridSize="10" guides="1" tooltips="1" connect="1" arrows="1" fold="1" page="1" pageScale="1" pageWidth="1169" pageHeight="827" math="0" shadow="0">
      <root>
        <mxCell id="0" />
        <mxCell id="1" parent="0" />
        <mxCell id="QNcuGov9qd2iNVqQNEvB-12" style="edgeStyle=orthogonalEdgeStyle;rounded=0;orthogonalLoop=1;jettySize=auto;html=1;entryX=0.5;entryY=0;entryDx=0;entryDy=0;" edge="1" parent="1" source="XI4yO4jgcjPZNiWnLrqw-1" target="QNcuGov9qd2iNVqQNEvB-11">
          <mxGeometry relative="1" as="geometry" />
        </mxCell>
        <mxCell id="XI4yO4jgcjPZNiWnLrqw-1" value="Portal de Desaparecidos" style="rounded=1;whiteSpace=wrap;html=1;" parent="1" vertex="1">
          <mxGeometry x="525" width="120" height="60" as="geometry" />
        </mxCell>
        <mxCell id="QNcuGov9qd2iNVqQNEvB-5" style="edgeStyle=orthogonalEdgeStyle;rounded=0;orthogonalLoop=1;jettySize=auto;html=1;entryX=0.5;entryY=0;entryDx=0;entryDy=0;" edge="1" parent="1" source="QNcuGov9qd2iNVqQNEvB-1" target="QNcuGov9qd2iNVqQNEvB-4">
          <mxGeometry relative="1" as="geometry">
            <Array as="points">
              <mxPoint x="420" y="190" />
            </Array>
          </mxGeometry>
        </mxCell>
        <mxCell id="QNcuGov9qd2iNVqQNEvB-9" style="edgeStyle=orthogonalEdgeStyle;rounded=0;orthogonalLoop=1;jettySize=auto;html=1;entryX=0.5;entryY=0;entryDx=0;entryDy=0;" edge="1" parent="1" source="QNcuGov9qd2iNVqQNEvB-1" target="QNcuGov9qd2iNVqQNEvB-3">
          <mxGeometry relative="1" as="geometry">
            <Array as="points">
              <mxPoint x="180" y="190" />
            </Array>
          </mxGeometry>
        </mxCell>
        <mxCell id="QNcuGov9qd2iNVqQNEvB-32" style="edgeStyle=orthogonalEdgeStyle;rounded=0;orthogonalLoop=1;jettySize=auto;html=1;startArrow=classic;startFill=1;endArrow=none;endFill=0;" edge="1" parent="1" source="QNcuGov9qd2iNVqQNEvB-1">
          <mxGeometry relative="1" as="geometry">
            <mxPoint x="300" y="110" as="targetPoint" />
          </mxGeometry>
        </mxCell>
        <mxCell id="QNcuGov9qd2iNVqQNEvB-1" value="Emergência" style="rounded=1;whiteSpace=wrap;html=1;" vertex="1" parent="1">
          <mxGeometry x="240" y="160" width="120" height="60" as="geometry" />
        </mxCell>
        <mxCell id="QNcuGov9qd2iNVqQNEvB-3" value="Cadastro" style="rounded=1;whiteSpace=wrap;html=1;" vertex="1" parent="1">
          <mxGeometry x="120" y="240" width="120" height="60" as="geometry" />
        </mxCell>
        <mxCell id="QNcuGov9qd2iNVqQNEvB-4" value="Login" style="rounded=1;whiteSpace=wrap;html=1;" vertex="1" parent="1">
          <mxGeometry x="360" y="240" width="120" height="60" as="geometry" />
        </mxCell>
        <mxCell id="QNcuGov9qd2iNVqQNEvB-13" style="edgeStyle=orthogonalEdgeStyle;rounded=0;orthogonalLoop=1;jettySize=auto;html=1;endArrow=none;endFill=0;" edge="1" parent="1" source="QNcuGov9qd2iNVqQNEvB-11">
          <mxGeometry relative="1" as="geometry">
            <mxPoint x="-600" y="110" as="targetPoint" />
            <Array as="points">
              <mxPoint x="-270" y="110" />
            </Array>
          </mxGeometry>
        </mxCell>
        <mxCell id="QNcuGov9qd2iNVqQNEvB-96" style="edgeStyle=orthogonalEdgeStyle;rounded=0;orthogonalLoop=1;jettySize=auto;html=1;endArrow=none;endFill=0;" edge="1" parent="1" source="QNcuGov9qd2iNVqQNEvB-11">
          <mxGeometry relative="1" as="geometry">
            <mxPoint x="790" y="120" as="targetPoint" />
            <Array as="points">
              <mxPoint x="790" y="110" />
            </Array>
          </mxGeometry>
        </mxCell>
        <mxCell id="QNcuGov9qd2iNVqQNEvB-11" value="Inicio" style="rounded=1;whiteSpace=wrap;html=1;" vertex="1" parent="1">
          <mxGeometry x="525" y="80" width="120" height="60" as="geometry" />
        </mxCell>
        <mxCell id="QNcuGov9qd2iNVqQNEvB-15" value="Desaparecido 1" style="rounded=1;whiteSpace=wrap;html=1;" vertex="1" parent="1">
          <mxGeometry x="850" y="120" width="120" height="60" as="geometry" />
        </mxCell>
        <mxCell id="QNcuGov9qd2iNVqQNEvB-16" value="Desaparecido 2" style="rounded=1;whiteSpace=wrap;html=1;" vertex="1" parent="1">
          <mxGeometry x="850" y="190" width="120" height="60" as="geometry" />
        </mxCell>
        <mxCell id="QNcuGov9qd2iNVqQNEvB-17" value="Desaparecido 3" style="rounded=1;whiteSpace=wrap;html=1;" vertex="1" parent="1">
          <mxGeometry x="850" y="260" width="120" height="60" as="geometry" />
        </mxCell>
        <mxCell id="QNcuGov9qd2iNVqQNEvB-22" style="edgeStyle=orthogonalEdgeStyle;rounded=0;orthogonalLoop=1;jettySize=auto;html=1;startArrow=classic;startFill=1;endArrow=none;endFill=0;" edge="1" parent="1" source="QNcuGov9qd2iNVqQNEvB-18">
          <mxGeometry relative="1" as="geometry">
            <mxPoint x="790" y="360" as="targetPoint" />
            <Array as="points" />
          </mxGeometry>
        </mxCell>
        <mxCell id="QNcuGov9qd2iNVqQNEvB-18" value="Desaparecido 4" style="rounded=1;whiteSpace=wrap;html=1;" vertex="1" parent="1">
          <mxGeometry x="850" y="330" width="120" height="60" as="geometry" />
        </mxCell>
        <mxCell id="QNcuGov9qd2iNVqQNEvB-19" value="Desaparecido 5" style="rounded=1;whiteSpace=wrap;html=1;" vertex="1" parent="1">
          <mxGeometry x="850" y="400" width="120" height="60" as="geometry" />
        </mxCell>
        <mxCell id="QNcuGov9qd2iNVqQNEvB-20" value="Desaparecido 6" style="rounded=1;whiteSpace=wrap;html=1;" vertex="1" parent="1">
          <mxGeometry x="850" y="470" width="120" height="60" as="geometry" />
        </mxCell>
        <mxCell id="QNcuGov9qd2iNVqQNEvB-31" style="edgeStyle=orthogonalEdgeStyle;rounded=0;orthogonalLoop=1;jettySize=auto;html=1;startArrow=classic;startFill=1;endArrow=none;endFill=0;" edge="1" parent="1" source="QNcuGov9qd2iNVqQNEvB-21">
          <mxGeometry relative="1" as="geometry">
            <mxPoint x="790" y="110" as="targetPoint" />
          </mxGeometry>
        </mxCell>
        <mxCell id="QNcuGov9qd2iNVqQNEvB-21" value="Desaparecido 7" style="rounded=1;whiteSpace=wrap;html=1;" vertex="1" parent="1">
          <mxGeometry x="850" y="540" width="120" height="60" as="geometry" />
        </mxCell>
        <mxCell id="QNcuGov9qd2iNVqQNEvB-23" style="edgeStyle=orthogonalEdgeStyle;rounded=0;orthogonalLoop=1;jettySize=auto;html=1;startArrow=classic;startFill=1;endArrow=none;endFill=0;" edge="1" parent="1" source="QNcuGov9qd2iNVqQNEvB-19">
          <mxGeometry relative="1" as="geometry">
            <mxPoint x="790" y="430" as="targetPoint" />
            <mxPoint x="850" y="510" as="sourcePoint" />
            <Array as="points" />
          </mxGeometry>
        </mxCell>
        <mxCell id="QNcuGov9qd2iNVqQNEvB-24" style="edgeStyle=orthogonalEdgeStyle;rounded=0;orthogonalLoop=1;jettySize=auto;html=1;startArrow=classic;startFill=1;endArrow=none;endFill=0;" edge="1" parent="1" source="QNcuGov9qd2iNVqQNEvB-20">
          <mxGeometry relative="1" as="geometry">
            <mxPoint x="790" y="500" as="targetPoint" />
            <mxPoint x="850" y="589.5" as="sourcePoint" />
            <Array as="points" />
          </mxGeometry>
        </mxCell>
        <mxCell id="QNcuGov9qd2iNVqQNEvB-28" style="edgeStyle=orthogonalEdgeStyle;rounded=0;orthogonalLoop=1;jettySize=auto;html=1;startArrow=classic;startFill=1;endArrow=none;endFill=0;" edge="1" parent="1" source="QNcuGov9qd2iNVqQNEvB-17">
          <mxGeometry relative="1" as="geometry">
            <mxPoint x="790" y="290" as="targetPoint" />
            <mxPoint x="860" y="350" as="sourcePoint" />
            <Array as="points" />
          </mxGeometry>
        </mxCell>
        <mxCell id="QNcuGov9qd2iNVqQNEvB-29" style="edgeStyle=orthogonalEdgeStyle;rounded=0;orthogonalLoop=1;jettySize=auto;html=1;startArrow=classic;startFill=1;endArrow=none;endFill=0;exitX=0;exitY=0.5;exitDx=0;exitDy=0;" edge="1" parent="1" source="QNcuGov9qd2iNVqQNEvB-16">
          <mxGeometry relative="1" as="geometry">
            <mxPoint x="790" y="220" as="targetPoint" />
            <mxPoint x="850" y="270" as="sourcePoint" />
            <Array as="points">
              <mxPoint x="790" y="220" />
            </Array>
          </mxGeometry>
        </mxCell>
        <mxCell id="QNcuGov9qd2iNVqQNEvB-30" style="edgeStyle=orthogonalEdgeStyle;rounded=0;orthogonalLoop=1;jettySize=auto;html=1;startArrow=classic;startFill=1;endArrow=none;endFill=0;" edge="1" parent="1" source="QNcuGov9qd2iNVqQNEvB-15">
          <mxGeometry relative="1" as="geometry">
            <mxPoint x="790" y="150" as="targetPoint" />
            <mxPoint x="850" y="189.5" as="sourcePoint" />
            <Array as="points" />
          </mxGeometry>
        </mxCell>
        <mxCell id="QNcuGov9qd2iNVqQNEvB-34" style="edgeStyle=orthogonalEdgeStyle;rounded=0;orthogonalLoop=1;jettySize=auto;html=1;startArrow=classic;startFill=1;endArrow=none;endFill=0;" edge="1" parent="1" source="QNcuGov9qd2iNVqQNEvB-33">
          <mxGeometry relative="1" as="geometry">
            <mxPoint x="20" y="110" as="targetPoint" />
            <Array as="points">
              <mxPoint x="20" y="110" />
            </Array>
          </mxGeometry>
        </mxCell>
        <mxCell id="QNcuGov9qd2iNVqQNEvB-33" value="Mapa" style="rounded=1;whiteSpace=wrap;html=1;" vertex="1" parent="1">
          <mxGeometry x="-40" y="170" width="120" height="60" as="geometry" />
        </mxCell>
        <mxCell id="QNcuGov9qd2iNVqQNEvB-36" style="edgeStyle=orthogonalEdgeStyle;rounded=0;orthogonalLoop=1;jettySize=auto;html=1;startArrow=classic;startFill=1;endArrow=none;endFill=0;" edge="1" parent="1" source="QNcuGov9qd2iNVqQNEvB-35">
          <mxGeometry relative="1" as="geometry">
            <mxPoint x="-270" y="110" as="targetPoint" />
          </mxGeometry>
        </mxCell>
        <mxCell id="QNcuGov9qd2iNVqQNEvB-43" style="edgeStyle=orthogonalEdgeStyle;rounded=0;orthogonalLoop=1;jettySize=auto;html=1;endArrow=none;endFill=0;" edge="1" parent="1" source="QNcuGov9qd2iNVqQNEvB-35">
          <mxGeometry relative="1" as="geometry">
            <mxPoint x="-270" y="250" as="targetPoint" />
          </mxGeometry>
        </mxCell>
        <mxCell id="QNcuGov9qd2iNVqQNEvB-35" value="Login" style="rounded=1;whiteSpace=wrap;html=1;" vertex="1" parent="1">
          <mxGeometry x="-330" y="170" width="120" height="60" as="geometry" />
        </mxCell>
        <mxCell id="QNcuGov9qd2iNVqQNEvB-40" style="edgeStyle=orthogonalEdgeStyle;rounded=0;orthogonalLoop=1;jettySize=auto;html=1;startArrow=classic;startFill=1;endArrow=none;endFill=0;exitX=0.5;exitY=0;exitDx=0;exitDy=0;" edge="1" parent="1" source="QNcuGov9qd2iNVqQNEvB-38">
          <mxGeometry relative="1" as="geometry">
            <mxPoint x="-270" y="250" as="targetPoint" />
            <Array as="points">
              <mxPoint x="-420" y="250" />
            </Array>
          </mxGeometry>
        </mxCell>
        <mxCell id="QNcuGov9qd2iNVqQNEvB-48" style="edgeStyle=orthogonalEdgeStyle;rounded=0;orthogonalLoop=1;jettySize=auto;html=1;entryX=0.5;entryY=0;entryDx=0;entryDy=0;" edge="1" parent="1" source="QNcuGov9qd2iNVqQNEvB-38" target="QNcuGov9qd2iNVqQNEvB-47">
          <mxGeometry relative="1" as="geometry" />
        </mxCell>
        <mxCell id="QNcuGov9qd2iNVqQNEvB-38" value="Cadastro" style="rounded=1;whiteSpace=wrap;html=1;" vertex="1" parent="1">
          <mxGeometry x="-480" y="280" width="120" height="60" as="geometry" />
        </mxCell>
        <mxCell id="QNcuGov9qd2iNVqQNEvB-42" style="edgeStyle=orthogonalEdgeStyle;rounded=0;orthogonalLoop=1;jettySize=auto;html=1;endArrow=none;endFill=0;startArrow=classic;startFill=1;" edge="1" parent="1" source="QNcuGov9qd2iNVqQNEvB-41">
          <mxGeometry relative="1" as="geometry">
            <mxPoint x="-280" y="250" as="targetPoint" />
            <Array as="points">
              <mxPoint x="-120" y="250" />
            </Array>
          </mxGeometry>
        </mxCell>
        <mxCell id="QNcuGov9qd2iNVqQNEvB-51" style="edgeStyle=orthogonalEdgeStyle;rounded=0;orthogonalLoop=1;jettySize=auto;html=1;entryX=0.5;entryY=0;entryDx=0;entryDy=0;" edge="1" parent="1" source="QNcuGov9qd2iNVqQNEvB-41" target="QNcuGov9qd2iNVqQNEvB-50">
          <mxGeometry relative="1" as="geometry" />
        </mxCell>
        <mxCell id="QNcuGov9qd2iNVqQNEvB-41" value="Esqueceu sua senha" style="rounded=1;whiteSpace=wrap;html=1;" vertex="1" parent="1">
          <mxGeometry x="-180" y="280" width="120" height="60" as="geometry" />
        </mxCell>
        <mxCell id="QNcuGov9qd2iNVqQNEvB-45" style="edgeStyle=orthogonalEdgeStyle;rounded=0;orthogonalLoop=1;jettySize=auto;html=1;startArrow=classic;startFill=1;endArrow=none;endFill=0;" edge="1" parent="1">
          <mxGeometry relative="1" as="geometry">
            <mxPoint x="-270" y="250" as="targetPoint" />
            <mxPoint x="-269.9411764705883" y="460" as="sourcePoint" />
          </mxGeometry>
        </mxCell>
        <mxCell id="QNcuGov9qd2iNVqQNEvB-49" style="edgeStyle=orthogonalEdgeStyle;rounded=0;orthogonalLoop=1;jettySize=auto;html=1;entryX=0;entryY=0.5;entryDx=0;entryDy=0;" edge="1" parent="1" source="QNcuGov9qd2iNVqQNEvB-47">
          <mxGeometry relative="1" as="geometry">
            <mxPoint x="-330" y="490" as="targetPoint" />
            <Array as="points">
              <mxPoint x="-420" y="490" />
            </Array>
          </mxGeometry>
        </mxCell>
        <mxCell id="QNcuGov9qd2iNVqQNEvB-47" value="Login" style="rounded=1;whiteSpace=wrap;html=1;" vertex="1" parent="1">
          <mxGeometry x="-480" y="384" width="120" height="60" as="geometry" />
        </mxCell>
        <mxCell id="QNcuGov9qd2iNVqQNEvB-52" style="edgeStyle=orthogonalEdgeStyle;rounded=0;orthogonalLoop=1;jettySize=auto;html=1;entryX=1;entryY=0.5;entryDx=0;entryDy=0;" edge="1" parent="1" source="QNcuGov9qd2iNVqQNEvB-50">
          <mxGeometry relative="1" as="geometry">
            <mxPoint x="-210" y="490" as="targetPoint" />
            <Array as="points">
              <mxPoint x="-120" y="490" />
            </Array>
          </mxGeometry>
        </mxCell>
        <mxCell id="QNcuGov9qd2iNVqQNEvB-50" value="Login" style="rounded=1;whiteSpace=wrap;html=1;" vertex="1" parent="1">
          <mxGeometry x="-180" y="384" width="120" height="60" as="geometry" />
        </mxCell>
        <mxCell id="QNcuGov9qd2iNVqQNEvB-53" style="edgeStyle=orthogonalEdgeStyle;rounded=0;orthogonalLoop=1;jettySize=auto;html=1;entryX=0.5;entryY=0;entryDx=0;entryDy=0;" edge="1" parent="1" target="QNcuGov9qd2iNVqQNEvB-62">
          <mxGeometry relative="1" as="geometry">
            <mxPoint x="-270" y="446" as="sourcePoint" />
          </mxGeometry>
        </mxCell>
        <mxCell id="QNcuGov9qd2iNVqQNEvB-54" style="edgeStyle=orthogonalEdgeStyle;rounded=0;orthogonalLoop=1;jettySize=auto;html=1;entryX=0.5;entryY=0;entryDx=0;entryDy=0;" edge="1" parent="1" source="QNcuGov9qd2iNVqQNEvB-57" target="QNcuGov9qd2iNVqQNEvB-59">
          <mxGeometry relative="1" as="geometry">
            <Array as="points">
              <mxPoint x="-270" y="630" />
            </Array>
          </mxGeometry>
        </mxCell>
        <mxCell id="QNcuGov9qd2iNVqQNEvB-55" style="edgeStyle=orthogonalEdgeStyle;rounded=0;orthogonalLoop=1;jettySize=auto;html=1;entryX=0.5;entryY=0;entryDx=0;entryDy=0;" edge="1" parent="1" source="QNcuGov9qd2iNVqQNEvB-57" target="QNcuGov9qd2iNVqQNEvB-58">
          <mxGeometry relative="1" as="geometry">
            <Array as="points">
              <mxPoint x="-510" y="630" />
            </Array>
          </mxGeometry>
        </mxCell>
        <mxCell id="QNcuGov9qd2iNVqQNEvB-56" style="edgeStyle=orthogonalEdgeStyle;rounded=0;orthogonalLoop=1;jettySize=auto;html=1;startArrow=classic;startFill=1;endArrow=none;endFill=0;" edge="1" parent="1" source="QNcuGov9qd2iNVqQNEvB-57">
          <mxGeometry relative="1" as="geometry">
            <mxPoint x="-390" y="550" as="targetPoint" />
          </mxGeometry>
        </mxCell>
        <mxCell id="QNcuGov9qd2iNVqQNEvB-57" value="Emergência" style="rounded=1;whiteSpace=wrap;html=1;" vertex="1" parent="1">
          <mxGeometry x="-450" y="600" width="120" height="60" as="geometry" />
        </mxCell>
        <mxCell id="QNcuGov9qd2iNVqQNEvB-58" value="Cadastro" style="rounded=1;whiteSpace=wrap;html=1;" vertex="1" parent="1">
          <mxGeometry x="-570" y="680" width="120" height="60" as="geometry" />
        </mxCell>
        <mxCell id="QNcuGov9qd2iNVqQNEvB-59" value="Login" style="rounded=1;whiteSpace=wrap;html=1;" vertex="1" parent="1">
          <mxGeometry x="-330" y="680" width="120" height="60" as="geometry" />
        </mxCell>
        <mxCell id="QNcuGov9qd2iNVqQNEvB-60" style="edgeStyle=orthogonalEdgeStyle;rounded=0;orthogonalLoop=1;jettySize=auto;html=1;endArrow=none;endFill=0;" edge="1" parent="1" source="QNcuGov9qd2iNVqQNEvB-62">
          <mxGeometry relative="1" as="geometry">
            <mxPoint x="-840" y="550" as="targetPoint" />
            <Array as="points">
              <mxPoint x="-270" y="550" />
            </Array>
          </mxGeometry>
        </mxCell>
        <mxCell id="QNcuGov9qd2iNVqQNEvB-61" style="edgeStyle=orthogonalEdgeStyle;rounded=0;orthogonalLoop=1;jettySize=auto;html=1;endArrow=none;endFill=0;" edge="1" parent="1" source="QNcuGov9qd2iNVqQNEvB-62">
          <mxGeometry relative="1" as="geometry">
            <mxPoint x="300" y="550" as="targetPoint" />
            <Array as="points">
              <mxPoint x="-270" y="550" />
              <mxPoint x="255" y="550" />
            </Array>
          </mxGeometry>
        </mxCell>
        <mxCell id="QNcuGov9qd2iNVqQNEvB-62" value="Inicio" style="rounded=1;whiteSpace=wrap;html=1;" vertex="1" parent="1">
          <mxGeometry x="-330" y="466" width="120" height="60" as="geometry" />
        </mxCell>
        <mxCell id="QNcuGov9qd2iNVqQNEvB-68" style="edgeStyle=orthogonalEdgeStyle;rounded=0;orthogonalLoop=1;jettySize=auto;html=1;startArrow=classic;startFill=1;endArrow=none;endFill=0;" edge="1" parent="1" source="QNcuGov9qd2iNVqQNEvB-69">
          <mxGeometry relative="1" as="geometry">
            <mxPoint x="-670" y="550" as="targetPoint" />
            <Array as="points">
              <mxPoint x="-670" y="550" />
            </Array>
          </mxGeometry>
        </mxCell>
        <mxCell id="QNcuGov9qd2iNVqQNEvB-69" value="Mapa" style="rounded=1;whiteSpace=wrap;html=1;" vertex="1" parent="1">
          <mxGeometry x="-730" y="610" width="120" height="60" as="geometry" />
        </mxCell>
        <mxCell id="QNcuGov9qd2iNVqQNEvB-74" value="Desaparecido 1" style="rounded=1;whiteSpace=wrap;html=1;" vertex="1" parent="1">
          <mxGeometry x="0.05999999999994543" y="560" width="120" height="60" as="geometry" />
        </mxCell>
        <mxCell id="QNcuGov9qd2iNVqQNEvB-75" value="Desaparecido 2" style="rounded=1;whiteSpace=wrap;html=1;" vertex="1" parent="1">
          <mxGeometry x="0.05999999999994543" y="630" width="120" height="60" as="geometry" />
        </mxCell>
        <mxCell id="QNcuGov9qd2iNVqQNEvB-76" value="Desaparecido 3" style="rounded=1;whiteSpace=wrap;html=1;" vertex="1" parent="1">
          <mxGeometry x="0.05999999999994543" y="700" width="120" height="60" as="geometry" />
        </mxCell>
        <mxCell id="QNcuGov9qd2iNVqQNEvB-77" style="edgeStyle=orthogonalEdgeStyle;rounded=0;orthogonalLoop=1;jettySize=auto;html=1;startArrow=classic;startFill=1;endArrow=none;endFill=0;" edge="1" parent="1" source="QNcuGov9qd2iNVqQNEvB-78">
          <mxGeometry relative="1" as="geometry">
            <mxPoint x="-59.940000000000055" y="800" as="targetPoint" />
            <Array as="points" />
          </mxGeometry>
        </mxCell>
        <mxCell id="QNcuGov9qd2iNVqQNEvB-78" value="Desaparecido 4" style="rounded=1;whiteSpace=wrap;html=1;" vertex="1" parent="1">
          <mxGeometry x="0.05999999999994543" y="770" width="120" height="60" as="geometry" />
        </mxCell>
        <mxCell id="QNcuGov9qd2iNVqQNEvB-79" value="Desaparecido 5" style="rounded=1;whiteSpace=wrap;html=1;" vertex="1" parent="1">
          <mxGeometry x="0.05999999999994543" y="840" width="120" height="60" as="geometry" />
        </mxCell>
        <mxCell id="QNcuGov9qd2iNVqQNEvB-80" value="Desaparecido 6" style="rounded=1;whiteSpace=wrap;html=1;" vertex="1" parent="1">
          <mxGeometry x="0.05999999999994543" y="910" width="120" height="60" as="geometry" />
        </mxCell>
        <mxCell id="QNcuGov9qd2iNVqQNEvB-81" style="edgeStyle=orthogonalEdgeStyle;rounded=0;orthogonalLoop=1;jettySize=auto;html=1;startArrow=classic;startFill=1;endArrow=none;endFill=0;" edge="1" parent="1" source="QNcuGov9qd2iNVqQNEvB-82">
          <mxGeometry relative="1" as="geometry">
            <mxPoint x="-59.940000000000055" y="550" as="targetPoint" />
          </mxGeometry>
        </mxCell>
        <mxCell id="QNcuGov9qd2iNVqQNEvB-82" value="Desaparecido 7" style="rounded=1;whiteSpace=wrap;html=1;" vertex="1" parent="1">
          <mxGeometry x="0.05999999999994543" y="980" width="120" height="60" as="geometry" />
        </mxCell>
        <mxCell id="QNcuGov9qd2iNVqQNEvB-83" style="edgeStyle=orthogonalEdgeStyle;rounded=0;orthogonalLoop=1;jettySize=auto;html=1;startArrow=classic;startFill=1;endArrow=none;endFill=0;" edge="1" parent="1" source="QNcuGov9qd2iNVqQNEvB-79">
          <mxGeometry relative="1" as="geometry">
            <mxPoint x="-59.940000000000055" y="870" as="targetPoint" />
            <mxPoint x="0.05999999999994543" y="950" as="sourcePoint" />
            <Array as="points" />
          </mxGeometry>
        </mxCell>
        <mxCell id="QNcuGov9qd2iNVqQNEvB-84" style="edgeStyle=orthogonalEdgeStyle;rounded=0;orthogonalLoop=1;jettySize=auto;html=1;startArrow=classic;startFill=1;endArrow=none;endFill=0;" edge="1" parent="1" source="QNcuGov9qd2iNVqQNEvB-80">
          <mxGeometry relative="1" as="geometry">
            <mxPoint x="-59.940000000000055" y="940" as="targetPoint" />
            <mxPoint x="0.05999999999994543" y="1029.5" as="sourcePoint" />
            <Array as="points" />
          </mxGeometry>
        </mxCell>
        <mxCell id="QNcuGov9qd2iNVqQNEvB-85" style="edgeStyle=orthogonalEdgeStyle;rounded=0;orthogonalLoop=1;jettySize=auto;html=1;startArrow=classic;startFill=1;endArrow=none;endFill=0;" edge="1" parent="1" source="QNcuGov9qd2iNVqQNEvB-76">
          <mxGeometry relative="1" as="geometry">
            <mxPoint x="-59.940000000000055" y="730" as="targetPoint" />
            <mxPoint x="10.059999999999945" y="790" as="sourcePoint" />
            <Array as="points" />
          </mxGeometry>
        </mxCell>
        <mxCell id="QNcuGov9qd2iNVqQNEvB-86" style="edgeStyle=orthogonalEdgeStyle;rounded=0;orthogonalLoop=1;jettySize=auto;html=1;startArrow=classic;startFill=1;endArrow=none;endFill=0;exitX=0;exitY=0.5;exitDx=0;exitDy=0;" edge="1" parent="1" source="QNcuGov9qd2iNVqQNEvB-75">
          <mxGeometry relative="1" as="geometry">
            <mxPoint x="-59.940000000000055" y="660" as="targetPoint" />
            <mxPoint x="0.05999999999994543" y="710" as="sourcePoint" />
            <Array as="points">
              <mxPoint x="-59.940000000000055" y="660" />
            </Array>
          </mxGeometry>
        </mxCell>
        <mxCell id="QNcuGov9qd2iNVqQNEvB-87" style="edgeStyle=orthogonalEdgeStyle;rounded=0;orthogonalLoop=1;jettySize=auto;html=1;startArrow=classic;startFill=1;endArrow=none;endFill=0;" edge="1" parent="1" source="QNcuGov9qd2iNVqQNEvB-74">
          <mxGeometry relative="1" as="geometry">
            <mxPoint x="-59.940000000000055" y="590" as="targetPoint" />
            <mxPoint x="0.05999999999994543" y="629.5" as="sourcePoint" />
            <Array as="points" />
          </mxGeometry>
        </mxCell>
        <mxCell id="QNcuGov9qd2iNVqQNEvB-88" style="edgeStyle=orthogonalEdgeStyle;rounded=0;orthogonalLoop=1;jettySize=auto;html=1;startArrow=classic;startFill=1;endArrow=none;endFill=0;" edge="1" parent="1">
          <mxGeometry relative="1" as="geometry">
            <mxPoint x="-839" y="550" as="targetPoint" />
            <Array as="points">
              <mxPoint x="-839" y="550" />
            </Array>
            <mxPoint x="-839" y="610" as="sourcePoint" />
          </mxGeometry>
        </mxCell>
        <mxCell id="QNcuGov9qd2iNVqQNEvB-90" style="edgeStyle=orthogonalEdgeStyle;rounded=0;orthogonalLoop=1;jettySize=auto;html=1;" edge="1" parent="1" source="QNcuGov9qd2iNVqQNEvB-89">
          <mxGeometry relative="1" as="geometry">
            <mxPoint x="-840" y="730" as="targetPoint" />
          </mxGeometry>
        </mxCell>
        <mxCell id="QNcuGov9qd2iNVqQNEvB-89" value="Sair" style="rounded=1;whiteSpace=wrap;html=1;" vertex="1" parent="1">
          <mxGeometry x="-900" y="610" width="120" height="60" as="geometry" />
        </mxCell>
        <mxCell id="QNcuGov9qd2iNVqQNEvB-91" value="Login" style="rounded=1;whiteSpace=wrap;html=1;" vertex="1" parent="1">
          <mxGeometry x="-900" y="730" width="120" height="60" as="geometry" />
        </mxCell>
        <mxCell id="QNcuGov9qd2iNVqQNEvB-94" style="edgeStyle=orthogonalEdgeStyle;rounded=0;orthogonalLoop=1;jettySize=auto;html=1;startArrow=classic;startFill=1;endArrow=none;endFill=0;" edge="1" parent="1" source="QNcuGov9qd2iNVqQNEvB-95">
          <mxGeometry relative="1" as="geometry">
            <mxPoint x="300" y="550" as="targetPoint" />
            <Array as="points">
              <mxPoint x="300" y="550" />
            </Array>
          </mxGeometry>
        </mxCell>
        <mxCell id="QNcuGov9qd2iNVqQNEvB-95" value="Cadastrar desaparecido" style="rounded=1;whiteSpace=wrap;html=1;" vertex="1" parent="1">
          <mxGeometry x="240" y="610" width="120" height="60" as="geometry" />
        </mxCell>
        <mxCell id="QNcuGov9qd2iNVqQNEvB-97" style="edgeStyle=orthogonalEdgeStyle;rounded=0;orthogonalLoop=1;jettySize=auto;html=1;startArrow=classic;startFill=1;endArrow=none;endFill=0;" edge="1" parent="1" source="QNcuGov9qd2iNVqQNEvB-98">
          <mxGeometry relative="1" as="geometry">
            <mxPoint x="-600" y="110" as="targetPoint" />
          </mxGeometry>
        </mxCell>
        <mxCell id="QNcuGov9qd2iNVqQNEvB-98" value="Cadastro" style="rounded=1;whiteSpace=wrap;html=1;" vertex="1" parent="1">
          <mxGeometry x="-660" y="170" width="120" height="60" as="geometry" />
        </mxCell>
        <mxCell id="QNcuGov9qd2iNVqQNEvB-99" style="edgeStyle=orthogonalEdgeStyle;rounded=0;orthogonalLoop=1;jettySize=auto;html=1;startArrow=classic;startFill=1;endArrow=none;endFill=0;" edge="1" parent="1" source="QNcuGov9qd2iNVqQNEvB-100">
          <mxGeometry relative="1" as="geometry">
            <mxPoint x="-600" y="230" as="targetPoint" />
          </mxGeometry>
        </mxCell>
        <mxCell id="QNcuGov9qd2iNVqQNEvB-100" value="Login" style="rounded=1;whiteSpace=wrap;html=1;" vertex="1" parent="1">
          <mxGeometry x="-660" y="290" width="120" height="60" as="geometry" />
        </mxCell>
      </root>
    </mxGraphModel>
  </diagram>
</mxfile>
